<svg width="96" height="40" viewBox="0 0 96 40" fill="none" xmlns="http://www.w3.org/2000/svg">
<path d="M0 0H96V40H0V0Z" fill="#F5F5F5"/>
<path d="M0 2C0 0.895431 0.895431 0 2 0H94C95.1046 0 96 0.895431 96 2V38C96 39.1046 95.1046 40 94 40H2C0.895429 40 0 39.1046 0 38V2Z" fill="#1890FF"/>
<g clip-path="url(#clip0)">
<path d="M29.4145 23.9312C29.1197 23.2331 28.692 22.5989 28.1551 22.0641C27.6198 21.5277 26.9858 21.1 26.2879 20.8047C26.2817 20.8016 26.2754 20.8 26.2692 20.7969C27.2426 20.0938 27.8754 18.9484 27.8754 17.6562C27.8754 15.5156 26.141 13.7812 24.0004 13.7812C21.8598 13.7812 20.1254 15.5156 20.1254 17.6562C20.1254 18.9484 20.7582 20.0937 21.7317 20.7984C21.7254 20.8016 21.7192 20.8031 21.7129 20.8062C21.0129 21.1016 20.3848 21.525 19.8457 22.0656C19.3093 22.6009 18.8817 23.235 18.5863 23.9328C18.2962 24.616 18.1398 25.3485 18.1254 26.0906C18.125 26.1073 18.1279 26.1239 18.134 26.1394C18.1401 26.1549 18.1492 26.1691 18.1609 26.181C18.1725 26.193 18.1865 26.2025 18.2018 26.2089C18.2172 26.2154 18.2337 26.2188 18.2504 26.2188H19.1879C19.2567 26.2188 19.3113 26.1641 19.3129 26.0969C19.3442 24.8906 19.8285 23.7609 20.6848 22.9047C21.5707 22.0188 22.7473 21.5312 24.0004 21.5312C25.2535 21.5312 26.4301 22.0188 27.316 22.9047C28.1723 23.7609 28.6567 24.8906 28.6879 26.0969C28.6895 26.1656 28.7442 26.2188 28.8129 26.2188H29.7504C29.7671 26.2188 29.7836 26.2154 29.799 26.2089C29.8143 26.2025 29.8283 26.193 29.8399 26.181C29.8516 26.1691 29.8607 26.1549 29.8668 26.1394C29.8729 26.1239 29.8758 26.1073 29.8754 26.0906C29.8598 25.3438 29.7051 24.6172 29.4145 23.9312ZM24.0004 20.3438C23.2832 20.3438 22.6082 20.0641 22.1004 19.5563C21.5926 19.0484 21.3129 18.3734 21.3129 17.6562C21.3129 16.9391 21.5926 16.2641 22.1004 15.7562C22.6082 15.2484 23.2832 14.9688 24.0004 14.9688C24.7176 14.9688 25.3926 15.2484 25.9004 15.7562C26.4082 16.2641 26.6879 16.9391 26.6879 17.6562C26.6879 18.3734 26.4082 19.0484 25.9004 19.5563C25.3926 20.0641 24.7176 20.3438 24.0004 20.3438Z" fill="white"/>
<path d="M41.875 26H37.6172V14.7266H41.8906C42.8542 14.7266 43.6328 14.9844 44.2266 15.5C44.8255 16.0156 45.125 16.6953 45.125 17.5391C45.125 18.1276 44.9349 18.6615 44.5547 19.1406C44.1797 19.6146 43.7214 19.901 43.1797 20V20.0625C43.9453 20.1615 44.5547 20.4609 45.0078 20.9609C45.4661 21.4609 45.6953 22.0859 45.6953 22.8359C45.6953 23.8307 45.3568 24.6068 44.6797 25.1641C44.0078 25.7214 43.0729 26 41.875 26ZM39.0234 15.9688V19.5859H41.1328C41.9661 19.5859 42.6016 19.4245 43.0391 19.1016C43.4818 18.7786 43.7031 18.3125 43.7031 17.7031C43.7031 17.1458 43.5182 16.7188 43.1484 16.4219C42.7786 16.1198 42.2526 15.9688 41.5703 15.9688H39.0234ZM39.0234 24.7578H41.6641C42.513 24.7578 43.1562 24.5885 43.5938 24.25C44.0312 23.9115 44.25 23.4167 44.25 22.7656C44.25 21.4531 43.3438 20.7969 41.5312 20.7969H39.0234V24.7578ZM50.6016 26.1406C49.4661 26.1406 48.5547 25.763 47.8672 25.0078C47.1797 24.2474 46.8359 23.224 46.8359 21.9375C46.8359 20.651 47.1797 19.6302 47.8672 18.875C48.5547 18.1146 49.4661 17.7344 50.6016 17.7344C51.7318 17.7344 52.6406 18.1146 53.3281 18.875C54.0156 19.6302 54.3594 20.651 54.3594 21.9375C54.3594 23.2188 54.0156 24.2396 53.3281 25C52.6406 25.7604 51.7318 26.1406 50.6016 26.1406ZM48.8594 24.1484C49.2917 24.6797 49.8724 24.9453 50.6016 24.9453C51.3307 24.9453 51.9089 24.6823 52.3359 24.1562C52.763 23.625 52.9766 22.8854 52.9766 21.9375C52.9766 20.9896 52.763 20.2526 52.3359 19.7266C51.9089 19.1953 51.3307 18.9297 50.6016 18.9297C49.8724 18.9297 49.2917 19.1953 48.8594 19.7266C48.4323 20.2578 48.2188 20.9948 48.2188 21.9375C48.2188 22.8802 48.4323 23.6172 48.8594 24.1484ZM57.2109 26H55.8672V17.875H57.2109V23.9219H57.2734L61.3359 17.875H62.6797V26H61.3359V19.9531H61.2734L57.2109 26ZM56.9062 14.3594H57.9062C57.9062 14.8229 58.0443 15.2083 58.3203 15.5156C58.6016 15.8229 58.9688 15.9766 59.4219 15.9766C59.875 15.9766 60.2396 15.8229 60.5156 15.5156C60.7969 15.2083 60.9375 14.8229 60.9375 14.3594H61.9375C61.9375 15.0781 61.7031 15.6615 61.2344 16.1094C60.7708 16.5573 60.1667 16.7812 59.4219 16.7812C58.6771 16.7812 58.0703 16.5573 57.6016 16.1094C57.138 15.6615 56.9062 15.0781 56.9062 14.3594ZM70.5312 17.875V18.9922H67.9062V26H66.5625V18.9922H63.9375V17.875H70.5312ZM73.1328 26H71.7891V17.875H73.1328V23.9219H73.1953L77.2578 17.875H78.6016V26H77.2578V19.9531H77.1953L73.1328 26Z" fill="white"/>
</g>
<path d="M0 0V-1H-1V0H0ZM96 0H97V-1H96V0ZM96 40V41H97V40H96ZM0 40H-1V41H0V40ZM0 1H96V-1H0V1ZM95 0V40H97V0H95ZM96 39H0V41H96V39ZM1 40V0H-1V40H1Z" fill="#D9D9D9"/>
<defs>
<clipPath id="clip0">
<rect x="16" y="8" width="64" height="24" fill="white"/>
</clipPath>
</defs>
</svg>
